%TF.GenerationSoftware,KiCad,Pcbnew,9.0.1*%
%TF.CreationDate,2025-05-06T21:02:19-04:00*%
%TF.ProjectId,PCB_breadboard,5043425f-6272-4656-9164-626f6172642e,V1.1.1.Locking*%
%TF.SameCoordinates,PX54c81a0PY9157080*%
%TF.FileFunction,Soldermask,Top*%
%TF.FilePolarity,Negative*%
%FSLAX46Y46*%
G04 Gerber Fmt 4.6, Leading zero omitted, Abs format (unit mm)*
G04 Created by KiCad (PCBNEW 9.0.1) date 2025-05-06 21:02:19*
%MOMM*%
%LPD*%
G01*
G04 APERTURE LIST*
%ADD10C,1.900000*%
%ADD11C,3.200000*%
G04 APERTURE END LIST*
D10*
%TO.C,K59*%
X50890000Y12860000D03*
X50890000Y15400000D03*
X50890000Y17940000D03*
X50890000Y20480000D03*
X50890000Y23020000D03*
%TD*%
%TO.C,K28*%
X48350000Y30640000D03*
X48350000Y33180000D03*
X48350000Y35720000D03*
X48350000Y38260000D03*
X48350000Y40800000D03*
%TD*%
%TO.C,K30*%
X53430000Y30640000D03*
X53430000Y33180000D03*
X53430000Y35720000D03*
X53430000Y38260000D03*
X53430000Y40800000D03*
%TD*%
%TO.C,K39*%
X76290000Y30980000D03*
X76290000Y33520000D03*
X76290000Y36060000D03*
X76290000Y38600000D03*
X76290000Y41140000D03*
%TD*%
%TO.C,K63*%
X61050000Y12860000D03*
X61050000Y15400000D03*
X61050000Y17940000D03*
X61050000Y20480000D03*
X61050000Y23020000D03*
%TD*%
%TO.C,K46*%
X17870000Y13200000D03*
X17870000Y15740000D03*
X17870000Y18280000D03*
X17870000Y20820000D03*
X17870000Y23360000D03*
%TD*%
%TO.C,K35*%
X66130000Y30980000D03*
X66130000Y33520000D03*
X66130000Y36060000D03*
X66130000Y38600000D03*
X66130000Y41140000D03*
%TD*%
%TO.C,K14*%
X12790000Y30640000D03*
X12790000Y33180000D03*
X12790000Y35720000D03*
X12790000Y38260000D03*
X12790000Y40800000D03*
%TD*%
%TO.C,K9*%
X52160000Y48090000D03*
X54700000Y48430000D03*
X57240000Y48090000D03*
X59780000Y48430000D03*
X62490000Y48260000D03*
%TD*%
%TO.C,K47*%
X20410000Y12860000D03*
X20410000Y15400000D03*
X20410000Y17940000D03*
X20410000Y20480000D03*
X20410000Y23020000D03*
%TD*%
%TO.C,K56*%
X43270000Y13200000D03*
X43270000Y15740000D03*
X43270000Y18280000D03*
X43270000Y20820000D03*
X43270000Y23360000D03*
%TD*%
%TO.C,K32*%
X58510000Y30640000D03*
X58510000Y33180000D03*
X58510000Y35720000D03*
X58510000Y38260000D03*
X58510000Y40800000D03*
%TD*%
%TO.C,K54*%
X38190000Y13200000D03*
X38190000Y15740000D03*
X38190000Y18280000D03*
X38190000Y20820000D03*
X38190000Y23360000D03*
%TD*%
%TO.C,K26*%
X43270000Y30640000D03*
X43270000Y33180000D03*
X43270000Y35720000D03*
X43270000Y38260000D03*
X43270000Y40800000D03*
%TD*%
%TO.C,K18*%
X22950000Y30640000D03*
X22950000Y33180000D03*
X22950000Y35720000D03*
X22950000Y38260000D03*
X22950000Y40800000D03*
%TD*%
%TO.C,K44*%
X12790000Y13200000D03*
X12790000Y15740000D03*
X12790000Y18280000D03*
X12790000Y20820000D03*
X12790000Y23360000D03*
%TD*%
%TO.C,K15*%
X15330000Y30980000D03*
X15330000Y33520000D03*
X15330000Y36060000D03*
X15330000Y38600000D03*
X15330000Y41140000D03*
%TD*%
%TO.C,K2*%
X21680000Y50970000D03*
X24220000Y50630000D03*
X26760000Y50970000D03*
X29300000Y50630000D03*
X31840000Y50970000D03*
%TD*%
D11*
%TO.C,H1*%
X10000000Y27000000D03*
%TD*%
D10*
%TO.C,K16*%
X17870000Y30640000D03*
X17870000Y33180000D03*
X17870000Y35720000D03*
X17870000Y38260000D03*
X17870000Y40800000D03*
%TD*%
%TO.C,K13*%
X10250000Y30980000D03*
X10250000Y33520000D03*
X10250000Y36060000D03*
X10250000Y38600000D03*
X10250000Y41140000D03*
%TD*%
D11*
%TO.C,H3*%
X42000000Y27000000D03*
%TD*%
D10*
%TO.C,K37*%
X71210000Y30980000D03*
X71210000Y33520000D03*
X71210000Y36060000D03*
X71210000Y38600000D03*
X71210000Y41140000D03*
%TD*%
%TO.C,K3*%
X36920000Y50630000D03*
X39460000Y50970000D03*
X42000000Y50630000D03*
X44540000Y50970000D03*
X47250000Y50800000D03*
%TD*%
%TO.C,K73*%
X36920000Y5570000D03*
X39460000Y5910000D03*
X42000000Y5570000D03*
X44540000Y5910000D03*
X47250000Y5740000D03*
%TD*%
%TO.C,K80*%
X67400000Y3370000D03*
X69940000Y3030000D03*
X72480000Y3370000D03*
X75020000Y3030000D03*
X77560000Y3370000D03*
%TD*%
%TO.C,K23*%
X35650000Y30980000D03*
X35650000Y33520000D03*
X35650000Y36060000D03*
X35650000Y38600000D03*
X35650000Y41140000D03*
%TD*%
%TO.C,K68*%
X73750000Y13200000D03*
X73750000Y15740000D03*
X73750000Y18280000D03*
X73750000Y20820000D03*
X73750000Y23360000D03*
%TD*%
%TO.C,K5*%
X67400000Y50630000D03*
X69940000Y50970000D03*
X72480000Y50630000D03*
X75020000Y50970000D03*
X77730000Y50800000D03*
%TD*%
%TO.C,K27*%
X45810000Y30980000D03*
X45810000Y33520000D03*
X45810000Y36060000D03*
X45810000Y38600000D03*
X45810000Y41140000D03*
%TD*%
%TO.C,K64*%
X63590000Y13200000D03*
X63590000Y15740000D03*
X63590000Y18280000D03*
X63590000Y20820000D03*
X63590000Y23360000D03*
%TD*%
%TO.C,K25*%
X40730000Y30980000D03*
X40730000Y33520000D03*
X40730000Y36060000D03*
X40730000Y38600000D03*
X40730000Y41140000D03*
%TD*%
%TO.C,K36*%
X68670000Y30640000D03*
X68670000Y33180000D03*
X68670000Y35720000D03*
X68670000Y38260000D03*
X68670000Y40800000D03*
%TD*%
%TO.C,K21*%
X30570000Y30980000D03*
X30570000Y33520000D03*
X30570000Y36060000D03*
X30570000Y38600000D03*
X30570000Y41140000D03*
%TD*%
%TO.C,K1*%
X6440000Y50630000D03*
X8980000Y50970000D03*
X11520000Y50630000D03*
X14060000Y50970000D03*
X16770000Y50800000D03*
%TD*%
%TO.C,K79*%
X52160000Y3030000D03*
X54700000Y3370000D03*
X57240000Y3030000D03*
X59780000Y3370000D03*
X62490000Y3200000D03*
%TD*%
%TO.C,K6*%
X6440000Y48430000D03*
X8980000Y48090000D03*
X11520000Y48430000D03*
X14060000Y48090000D03*
X16600000Y48430000D03*
%TD*%
%TO.C,K51*%
X30570000Y12860000D03*
X30570000Y15400000D03*
X30570000Y17940000D03*
X30570000Y20480000D03*
X30570000Y23020000D03*
%TD*%
%TO.C,K41*%
X5170000Y12860000D03*
X5170000Y15400000D03*
X5170000Y17940000D03*
X5170000Y20480000D03*
X5170000Y23020000D03*
%TD*%
%TO.C,K45*%
X15330000Y12860000D03*
X15330000Y15400000D03*
X15330000Y17940000D03*
X15330000Y20480000D03*
X15330000Y23020000D03*
%TD*%
%TO.C,K40*%
X78830000Y30640000D03*
X78830000Y33180000D03*
X78830000Y35720000D03*
X78830000Y38260000D03*
X78830000Y40800000D03*
%TD*%
D11*
%TO.C,H2*%
X74000000Y27000000D03*
%TD*%
D10*
%TO.C,K11*%
X5170000Y30980000D03*
X5170000Y33520000D03*
X5170000Y36060000D03*
X5170000Y38600000D03*
X5170000Y41140000D03*
%TD*%
%TO.C,K31*%
X55970000Y30980000D03*
X55970000Y33520000D03*
X55970000Y36060000D03*
X55970000Y38600000D03*
X55970000Y41140000D03*
%TD*%
%TO.C,K43*%
X10250000Y12860000D03*
X10250000Y15400000D03*
X10250000Y17940000D03*
X10250000Y20480000D03*
X10250000Y23020000D03*
%TD*%
%TO.C,K72*%
X21680000Y5910000D03*
X24220000Y5570000D03*
X26760000Y5910000D03*
X29300000Y5570000D03*
X31840000Y5910000D03*
%TD*%
%TO.C,K33*%
X61050000Y30980000D03*
X61050000Y33520000D03*
X61050000Y36060000D03*
X61050000Y38600000D03*
X61050000Y41140000D03*
%TD*%
%TO.C,K55*%
X40730000Y12860000D03*
X40730000Y15400000D03*
X40730000Y17940000D03*
X40730000Y20480000D03*
X40730000Y23020000D03*
%TD*%
%TO.C,K53*%
X35650000Y12860000D03*
X35650000Y15400000D03*
X35650000Y17940000D03*
X35650000Y20480000D03*
X35650000Y23020000D03*
%TD*%
%TO.C,K57*%
X45810000Y12860000D03*
X45810000Y15400000D03*
X45810000Y17940000D03*
X45810000Y20480000D03*
X45810000Y23020000D03*
%TD*%
%TO.C,K10*%
X67400000Y48430000D03*
X69940000Y48090000D03*
X72480000Y48430000D03*
X75020000Y48090000D03*
X77560000Y48430000D03*
%TD*%
%TO.C,K8*%
X36920000Y48430000D03*
X39460000Y48090000D03*
X42000000Y48430000D03*
X44540000Y48090000D03*
X47080000Y48430000D03*
%TD*%
%TO.C,K7*%
X21680000Y48090000D03*
X24220000Y48430000D03*
X26760000Y48090000D03*
X29300000Y48430000D03*
X32010000Y48260000D03*
%TD*%
%TO.C,K24*%
X38190000Y30640000D03*
X38190000Y33180000D03*
X38190000Y35720000D03*
X38190000Y38260000D03*
X38190000Y40800000D03*
%TD*%
%TO.C,K19*%
X25490000Y30980000D03*
X25490000Y33520000D03*
X25490000Y36060000D03*
X25490000Y38600000D03*
X25490000Y41140000D03*
%TD*%
%TO.C,K49*%
X25490000Y12860000D03*
X25490000Y15400000D03*
X25490000Y17940000D03*
X25490000Y20480000D03*
X25490000Y23020000D03*
%TD*%
%TO.C,K70*%
X78830000Y13200000D03*
X78830000Y15740000D03*
X78830000Y18280000D03*
X78830000Y20820000D03*
X78830000Y23360000D03*
%TD*%
%TO.C,K78*%
X36920000Y3370000D03*
X39460000Y3030000D03*
X42000000Y3370000D03*
X44540000Y3030000D03*
X47080000Y3370000D03*
%TD*%
%TO.C,K71*%
X6440000Y5570000D03*
X8980000Y5910000D03*
X11520000Y5570000D03*
X14060000Y5910000D03*
X16770000Y5740000D03*
%TD*%
%TO.C,K29*%
X50890000Y30980000D03*
X50890000Y33520000D03*
X50890000Y36060000D03*
X50890000Y38600000D03*
X50890000Y41140000D03*
%TD*%
%TO.C,K61*%
X55970000Y12860000D03*
X55970000Y15400000D03*
X55970000Y17940000D03*
X55970000Y20480000D03*
X55970000Y23020000D03*
%TD*%
%TO.C,K74*%
X52160000Y5910000D03*
X54700000Y5570000D03*
X57240000Y5910000D03*
X59780000Y5570000D03*
X62320000Y5910000D03*
%TD*%
%TO.C,K75*%
X67400000Y5570000D03*
X69940000Y5910000D03*
X72480000Y5570000D03*
X75020000Y5910000D03*
X77730000Y5740000D03*
%TD*%
%TO.C,K62*%
X58510000Y13200000D03*
X58510000Y15740000D03*
X58510000Y18280000D03*
X58510000Y20820000D03*
X58510000Y23360000D03*
%TD*%
%TO.C,K60*%
X53430000Y13200000D03*
X53430000Y15740000D03*
X53430000Y18280000D03*
X53430000Y20820000D03*
X53430000Y23360000D03*
%TD*%
%TO.C,K42*%
X7710000Y13200000D03*
X7710000Y15740000D03*
X7710000Y18280000D03*
X7710000Y20820000D03*
X7710000Y23360000D03*
%TD*%
%TO.C,K58*%
X48350000Y13200000D03*
X48350000Y15740000D03*
X48350000Y18280000D03*
X48350000Y20820000D03*
X48350000Y23360000D03*
%TD*%
%TO.C,K76*%
X6440000Y3370000D03*
X8980000Y3030000D03*
X11520000Y3370000D03*
X14060000Y3030000D03*
X16600000Y3370000D03*
%TD*%
%TO.C,K17*%
X20410000Y30980000D03*
X20410000Y33520000D03*
X20410000Y36060000D03*
X20410000Y38600000D03*
X20410000Y41140000D03*
%TD*%
%TO.C,K66*%
X68670000Y13200000D03*
X68670000Y15740000D03*
X68670000Y18280000D03*
X68670000Y20820000D03*
X68670000Y23360000D03*
%TD*%
%TO.C,K34*%
X63590000Y30640000D03*
X63590000Y33180000D03*
X63590000Y35720000D03*
X63590000Y38260000D03*
X63590000Y40800000D03*
%TD*%
%TO.C,K65*%
X66130000Y12860000D03*
X66130000Y15400000D03*
X66130000Y17940000D03*
X66130000Y20480000D03*
X66130000Y23020000D03*
%TD*%
%TO.C,K4*%
X52160000Y50970000D03*
X54700000Y50630000D03*
X57240000Y50970000D03*
X59780000Y50630000D03*
X62320000Y50970000D03*
%TD*%
%TO.C,K69*%
X76290000Y12860000D03*
X76290000Y15400000D03*
X76290000Y17940000D03*
X76290000Y20480000D03*
X76290000Y23020000D03*
%TD*%
%TO.C,K22*%
X33110000Y30640000D03*
X33110000Y33180000D03*
X33110000Y35720000D03*
X33110000Y38260000D03*
X33110000Y40800000D03*
%TD*%
%TO.C,K67*%
X71210000Y12860000D03*
X71210000Y15400000D03*
X71210000Y17940000D03*
X71210000Y20480000D03*
X71210000Y23020000D03*
%TD*%
%TO.C,K12*%
X7710000Y30640000D03*
X7710000Y33180000D03*
X7710000Y35720000D03*
X7710000Y38260000D03*
X7710000Y40800000D03*
%TD*%
%TO.C,K50*%
X28030000Y13200000D03*
X28030000Y15740000D03*
X28030000Y18280000D03*
X28030000Y20820000D03*
X28030000Y23360000D03*
%TD*%
%TO.C,K38*%
X73750000Y30640000D03*
X73750000Y33180000D03*
X73750000Y35720000D03*
X73750000Y38260000D03*
X73750000Y40800000D03*
%TD*%
%TO.C,K20*%
X28030000Y30640000D03*
X28030000Y33180000D03*
X28030000Y35720000D03*
X28030000Y38260000D03*
X28030000Y40800000D03*
%TD*%
%TO.C,K48*%
X22950000Y13200000D03*
X22950000Y15740000D03*
X22950000Y18280000D03*
X22950000Y20820000D03*
X22950000Y23360000D03*
%TD*%
%TO.C,K77*%
X21680000Y3030000D03*
X24220000Y3370000D03*
X26760000Y3030000D03*
X29300000Y3370000D03*
X32010000Y3200000D03*
%TD*%
%TO.C,K52*%
X33110000Y13200000D03*
X33110000Y15740000D03*
X33110000Y18280000D03*
X33110000Y20820000D03*
X33110000Y23360000D03*
%TD*%
M02*
