<?xml version="1.0" encoding="UTF-8"?>
<svg id="Layer_1" data-name="Layer 1" xmlns="http://www.w3.org/2000/svg" viewBox="0 0 184.25 127.24">
  <defs>
    <style>
      .cls-1 {
        fill: #fff;
      }

      .cls-2 {
        fill: #66c6d0;
      }
    </style>
  </defs>
  <path class="cls-1" d="M113.56,70.72v-3.91c-.2-.05-.14.04-.2.11-1.97,2.51-4.08,3.92-7.41,4.15-11.7.78-16.27-12.86-11.82-21.98,3.71-7.6,13.58-9.37,19.23-2.8.05.06,0,.16.2.11v-12.86h8.47l.13.13v36.92l-.13.13h-8.47ZM106.58,49.81c-6.15.63-7.11,10.16-2.13,13.02,3.7,2.12,8.17-.25,8.9-4.34.82-4.61-1.58-9.21-6.77-8.68Z"/>
  <path class="cls-1" d="M135.19,58.73c.09,1.82.81,3.53,2.37,4.54,1.73,1.12,4.48,1.14,6.1-.19.6-.49.94-1.13,1.39-1.74h8.99c-.05.67-.35,1.41-.62,2.03-5.23,11.97-24.88,9.79-26.65-4.17-1.29-10.19,5.11-17.8,15.59-16.88,8.64.75,13.31,7.86,12.3,16.2l-.13.22h-19.34ZM145.97,53.96c-.17-6.47-10.27-6.32-10.69,0h10.69Z"/>
  <path class="cls-1" d="M60.18,42.25c7.18-.07,13.31,4.26,14.5,11.52,1.68,10.21-5.28,17.88-15.58,17.31-18.1-1.01-17.9-28.63,1.07-28.82ZM59.83,49.73c-7.31.63-6.84,13.28-.37,13.87,9.1.84,8.8-14.59.37-13.87Z"/>
  <path class="cls-1" d="M20.13,32.32v9.43c0,.39,1.09,2.22,1.39,2.6,2.11,2.68,6.97,3.76,10.1,4.93,6.17,2.31,10.75,4.96,10.23,12.44-.31,4.52-3.59,8.45-7.73,10.03l.18-2.65c.04-1.84.19-4.03-1.9-4.75,0-1.55.1-2.84-.52-4.3-.55-1.3-1.54-2.34-2.86-2.87-4.59-1.86-10.51-2.2-14.32-5.67-2.86-2.6-3.63-5.6-3.33-9.42.38-4.89,4.17-8.59,8.77-9.78Z"/>
  <rect class="cls-1" x="79.49" y="33.54" width="8.6" height="37.18"/>
  <path class="cls-1" d="M176.65,42.4v9.04c-2.94.02-6.94-.3-8.27,2.98-.28.7-.46,1.61-.51,2.36-.28,4.44.21,9.18,0,13.65l-.13.3h-8.47v-28.06h8.6v4.52c1.6-2.12,3.58-3.85,6.22-4.51.29-.07,1.05-.27,1.3-.27h1.26Z"/>
  <path class="cls-2" d="M27.32,95.19l-.04-4.08,1.81-1.76.13-15.42c.11-1.18,1.69-1.09,2.59-1.41.73-.26.93-.47,1.01-1.25.11-1.07.19-3.02.1-4.08-.1-1.21-.7-1.71-1.92-1.52v-3.95c0-.08-.35-.99-.42-1.14-.73-1.64-1.67-1.95-3.25-2.48-1.91-.64-3.88-1.11-5.8-1.71v9.3c-.78-.15-1.69.08-1.87.95s-.09,4.03.06,4.99c.23,1.48,3.28.68,3.53,2.2.13.76.09,2.33.11,3.19.09,3.8,0,12.12.05,12.37l1.78,1.64c.03,1.15,0,4.13,0,4.13l1.09,2.51,1.06-2.48Z"/>
  <path class="cls-2" d="M146.75,77.33l-5.95,8.43-.39.73c.73,3.38,1.86,6.66,2.9,9.95l3.17-17.84,4.17-.72.18.1-3.16,19.25-4.52.6.04-.78-5.3.05-1.17-7.44-.48.57-1.4,7.07-4.42.62c1.28-6.66,2.76-13.31,3.43-20.07l4.57.18-1.02,5.63.11.19,3.8-5.98,5.46-.54Z"/>
  <path class="cls-2" d="M27.52,27.2h1.26l2.22,4.39v15.86c-1.55-.48-3.12-.98-4.63-1.59-2.25-.89-4.02-1.84-4.81-4.32l-.02-10.02,2.06-4.19c.25-.26.95-.07,1.31-.13v-5.69c0-.24.46-1,.72-1.11.23-.09.97-.12,1.19-.02.19.09.7.75.7.95v5.86Z"/>
  <path class="cls-2" d="M167.91,97.05c-.06,0-.19.14-.3.09-.34-2.41-.72-4.83-1.05-7.25-.02-.12.08-.26-.13-.22l-.48.74-1.35,6.82-4.48.69c1.4-6.67,2.78-13.37,3.48-20.15l4.6.26-1,5.82,3.87-5.95,5.48-.52c-2.2,2.95-4.43,5.91-6.34,9.04.65,3.67,2.06,7.15,3.04,10.72-.1.03-.19-.09-.22-.09-1.66,0-3.5-.1-5.13,0Z"/>
  <path class="cls-2" d="M108.69,97.92l3.57-19.54c3.35-.67,8.1-1.72,9.8,2.22,1.47,3.42.06,7.88-1.74,10.92-2.43,4.1-6.63,7.2-11.63,6.4ZM113.56,94.44c.16.02.27-.09.39-.17,2.12-1.56,4.67-7.97,4.57-10.55-.05-1.3-1.05-2.24-2.36-2l-2.6,12.72Z"/>
  <path class="cls-2" d="M101.3,83.75c.07-.61.18-1.13-.05-1.73-.56-1.51-2.56-.11-2.78.95-.37,1.78,1.86,2.5,2.96,3.4,1.73,1.43,2.15,3.43,1.96,5.6-.48,5.41-8.63,8.4-11.79,3.48l1.97-3.91c.06-.08.13.04.17.09.97,1.11,2.46,2.27,4.02,1.67.96-.37,1.3-1.03,1.05-2.05-.49-1.97-4.96-3.3-5.57-5.99-.68-2.99,2.34-5.56,4.78-6.64,3.68-1.62,8.48-1.31,7.26,3.95l-3.98,1.19Z"/>
  <path class="cls-2" d="M158.94,83.22s-.26-.46-.45-.55c-.92-.39-1.81,1.16-2.19,1.81-1,1.73-2.76,6.08-2.32,8,.49,2.19,3.14-.64,3.12-1.77l3.21,1.22c-.87,2.14-2.26,4.22-4.34,5.34-2.84,1.54-5.21.37-6.04-2.65-1.56-5.71,2.28-17.04,9.38-16.94,2.38.03,3.72,2.52,3.27,4.65-.5.06-3.42,1.02-3.64.89Z"/>
  <polygon class="cls-2" points="133.28 77.59 132.59 80.89 128.46 81.06 127.55 85.93 131.28 85.75 130.77 88.84 127.12 88.98 126.16 93.96 130.15 93.4 129.94 96.44 121.03 97.92 124.6 78.29 133.28 77.59"/>
  <polygon class="cls-2" points="103.21 97.83 106.6 78.6 110.82 77.85 107.81 97.17 103.21 97.83"/>
  <path class="cls-1" d="M41.34,43.62h-8.95v-11.29c5.12,1.46,8.96,5.83,8.95,11.29Z"/>
  <path class="cls-1" d="M20.13,60.47v3.91c-.71.13-1.34.72-1.63,1.37-.45,1.01-.33,3.57-.29,4.76,0,.15.23.81-.04.73-.43-.13-1.74-1.01-2.16-1.32-3.05-2.23-4.77-5.66-4.84-9.45h8.95Z"/>
</svg>